<svg width="62" height="62" viewBox="0 0 62 62" xmlns="http://www.w3.org/2000/svg"><g><path d="M57.995 24.705c.442 1.96.696 3.99.696 6.08 0 15.232-12.39 27.625-27.623 27.625S3.442 46.017 3.442 30.786c0-2.092.254-4.122.696-6.08l.387-1.5C7.83 11.65 18.465 3.16 31.067 3.16c12.6 0 23.236 8.49 26.542 20.045l.385 1.5zM31.067.16C14.18.16.442 13.9.442 30.786c0 16.886 13.74 30.624 30.625 30.624 16.887 0 30.624-13.738 30.624-30.624C61.69 13.9 47.955.16 31.068.16z"/><path d="M19.27 20.681c-1.808.002-3.273 1.466-3.273 3.274s1.465 3.273 3.273 3.273 3.273-1.465 3.273-3.273-1.465-3.273-3.273-3.273M42.865 20.681c-1.808.002-3.273 1.466-3.273 3.274s1.465 3.273 3.273 3.273 3.273-1.465 3.273-3.273-1.465-3.273-3.273-3.273M46.137 44.434h-30.14c-.83 0-1.5-.672-1.5-1.5s.67-1.5 1.5-1.5h30.14c.83 0 1.5.672 1.5 1.5s-.67 1.5-1.5 1.5"/></g></svg>
