<svg xmlns="http://www.w3.org/2000/svg" width="15" height="15" viewBox="0 0 15 15">
  <path d="M7.5 0C3.375 0 0 3.375 0 7.5S3.375 15 7.5 15 15 11.625 15 7.5 11.625 0 7.5 0zm3.0625 8.8125c.25.25.25.625 0 .875l-.875.875c-.25.25-.625.25-.875 0L7.5 9.25l-1.3125 1.3125c-.25.25-.625.25-.875 0l-.875-.875c-.25-.25-.25-.625 0-.875L5.75 7.5 4.4375 6.1875c-.25-.25-.25-.625 0-.875l.875-.875c.25-.25.625-.25.875 0L7.5 5.75l1.3125-1.3125c.25-.25.625-.25.875 0l.875.875c.25.25.25.625 0 .875L9.25 7.5l1.3125 1.3125z"/>
</svg>
