<svg width="47" height="29" viewBox="0 0 47 29" xmlns="http://www.w3.org/2000/svg"><g><path d="M26.323 19.03c-2.072-1.317-4.85-1.075-6.656.73-2.092 2.093-2.092 5.486 0 7.578 2.093 2.093 5.484 2.093 7.576 0 1.474-1.473 1.904-3.59 1.303-5.444l4.103-5.443-6.327 2.58z"/><path d="M23.456.62C10.812.62.526 10.907.526 23.55v1.03h9.5v-1.03c0-7.404 6.024-13.43 13.43-13.43 7.404 0 13.428 6.026 13.428 13.43v1.03h9.502v-1.03C46.386 10.907 36.1.62 23.456.62zM8.003 22.52H2.608c.157-3.188 1.036-6.19 2.47-8.848L7.44 15.16l1.077-1.703-2.395-1.512c1.584-2.36 3.635-4.383 6.022-5.928l2.7 4.672c-3.876 2.603-6.517 6.906-6.84 11.83zm8.62-12.862l-2.696-4.672c2.57-1.324 5.45-2.133 8.5-2.28v2.64h2.057v-2.64c3.05.147 5.93.956 8.5 2.28l-2.696 4.672c-2.062-1.017-4.38-1.596-6.832-1.596-2.453 0-4.77.58-6.832 1.596zM38.91 22.52c-.323-4.924-2.966-9.227-6.84-11.83l2.7-4.673c2.38 1.543 4.426 3.557 6.01 5.91l-2.314 1.462 1.097 1.74 2.283-1.44c1.43 2.654 2.304 5.65 2.46 8.83h-5.395z"/></g></svg>
