<svg xmlns="http://www.w3.org/2000/svg" width="22" height="23" viewBox="0 0 22 23">
  <g fill="none">
    <path fill="#E6E6E6" d="M6.1724 6.695l-4.182 4.182c-2.6537 2.6538-2.6537 6.9564 0 9.6102 2.654 2.654 6.9566 2.654 9.6105 0l4.1812-4.1818-9.61-9.6104z"/>
    <path fill="#ED69AB" d="M19.964 12.123c2.654-2.6538 2.654-6.9564 0-9.6102-2.654-2.654-6.9565-2.654-9.6103 0l-4.182 4.1818 9.6105 9.6103 4.1818-4.182z"/>
    <path fill="#F2CEE2" d="M18.1162 4.8838c-.134 0-.2677-.0512-.3696-.153-.6916-.6912-1.61-1.0717-2.5875-1.0717-.977 0-1.8953.381-2.587 1.072-.2043.2046-.535.2046-.739 0-.2044-.204-.2044-.535 0-.739.8886-.8886 2.07-1.378 3.3266-1.378 1.2567 0 2.438.4894 3.3267 1.378.2044.2044.2044.5353 0 .739-.1024.1025-.2357.153-.3695.153z"/>
  </g>
</svg>
