<svg width="197" height="197" viewBox="0 0 197 197" xmlns="http://www.w3.org/2000/svg"><g fill="none" fill-rule="evenodd"><circle fill="#FFF" cx="99" cy="98" r="79"/><path d="M175.212 99.667c-.482 27.187-15.157 50.907-36.95 64.046L149.11 182.5c28.274-16.893 47.323-47.618 47.808-82.833h-21.706z" fill="#FCBA1D"/><path d="M98.902 174.636c-13.417 0-26.02-3.472-36.975-9.55l-10.85 18.793c14.148 7.922 30.457 12.444 47.825 12.444 17.368 0 33.677-4.522 47.825-12.445l-10.85-18.794c-10.956 6.078-23.558 9.55-36.975 9.55" fill="#E45C0A"/><path d="M22.592 99.667H.886c.486 35.215 19.534 65.94 47.808 82.834l10.847-18.787c-21.79-13.14-36.465-36.86-36.948-64.046" fill="#D90015"/><path d="M59.541 32.87L48.695 14.08C20.42 30.975 1.372 61.7.886 96.916h21.707c.482-27.187 15.156-50.907 36.948-64.046" fill="#B792DB"/><path d="M175.212 96.915h21.706c-.485-35.216-19.534-65.94-47.808-82.835l-10.847 18.788c21.792 13.14 36.467 36.86 36.95 64.047" fill="#128B34"/><path d="M98.902 21.946c13.417 0 26.02 3.472 36.975 9.55l10.85-18.794C132.58 4.78 116.27.258 98.902.258c-17.368 0-33.677 4.522-47.825 12.444l10.85 18.794c10.956-6.078 23.558-9.55 36.975-9.55" fill="#0F5AC3"/><path fill="#F00" d="M100.552 53.205l-4.635 7.338v-7.338h-2.573l-5.536 8.626h3.22l2.316-3.86v7.076h3.09l4.118-7.077v7.076h2.704v-11.84"/><path fill="#F00" d="M87.037 53.205H84.46v11.84h6.566v-2.313h-3.99M80.978 60.922h-2.173L79.956 59l1.023-1.798v3.72zm-.257-7.69l-.765 1.28-6.518 10.508h3.195l1.406-2.305h2.94v2.305h2.557V53.232H80.72zM76.446 53.23l-4.358 7.048V53.23H69.14l-4.23 7.048V53.23h-2.693v11.79h2.692l4.742-7.434v7.434h2.436l7.305-11.79M109.94 58.814l.904-1.612v3.72H108.8L109.82 59l.12-.186zm-.12 3.9h1.024v2.308h2.556v-11.79h-2.686l-.894 1.28-6.515 10.51h3.192l1.407-2.307h1.916zM118.953 58.357H117.293v-3.202H118.953c1.022.128 1.53.51 1.53 1.538 0 1.024-.508 1.534-1.53 1.664m3.702.128c.128-.51.256-.898.256-1.283 0-.64 0-1.15-.127-1.793-.385-1.153-1.53-1.793-2.808-2.05-.386-.128-.64-.128-1.022-.128h-4.34v11.79h2.68v-4.485c.893 0 1.15.897 1.532 1.406l.25.536 1.153 2.54h2.683l-2.428-4.998c1.025-.253 1.79-.77 2.173-1.537M129.875 53.23l-3.573 4.616V53.23h-2.68v11.79h2.68v-4.483l3.318 4.483h3.06L128.09 59l4.59-5.77M134.79 54.53h.4c.172 0 .29.013.356.04.06.022.11.063.146.112.036.05.054.11.054.174 0 .1-.036.18-.11.24-.075.062-.213.093-.417.093h-.43v-.66zm0 1.89v-.93h.207c.123 0 .218.026.283.076.093.068.215.236.37.507l.19.346h.43l-.266-.43c-.126-.202-.233-.347-.32-.433-.047-.044-.108-.083-.187-.115.188-.014.34-.082.453-.2.113-.117.17-.256.17-.416 0-.112-.033-.22-.1-.32-.068-.1-.162-.17-.275-.21-.115-.04-.3-.062-.558-.062h-.75v2.185h.353zm1.37-2.598c.27.146.48.356.633.626.15.272.227.554.227.848 0 .293-.074.572-.225.842-.147.267-.358.476-.626.626-.27.15-.55.224-.84.224-.294 0-.576-.075-.844-.224-.27-.15-.48-.36-.628-.626-.148-.27-.224-.55-.224-.842 0-.294.077-.576.228-.848.154-.27.364-.48.634-.626.27-.146.547-.22.833-.22.28 0 .56.074.83.22zm-1.83-.293c-.324.173-.58.423-.76.75-.18.325-.272.665-.272 1.016 0 .35.09.686.268 1.008.18.324.43.575.752.752.323.178.658.268 1.01.268.35 0 .69-.09 1.01-.268.32-.177.572-.428.75-.752.18-.322.268-.658.268-1.008s-.09-.69-.272-1.017c-.18-.327-.434-.577-.758-.75-.326-.177-.657-.262-.997-.262-.342 0-.675.085-1 .26z"/><path fill="#919191" d="M48.106 101.91h5.2V75.282h-5.2M75.256 101.91L64.71 85.57v16.343h-5.2V75.284h4.64L74.694 91.59V75.282h5.2v26.628M99.15 81.565c-.86-1.084-2.133-1.646-3.89-1.646h-3.965v17.353h3.964c1.757 0 3.03-.562 3.89-1.646.97-1.16 1.083-2.842 1.083-7.03 0-4.19-.112-5.873-1.084-7.032m4.6 16.456c-1.91 2.656-4.414 3.89-8.042 3.89h-9.612V75.282h9.612c3.628 0 6.133 1.234 8.04 3.89 1.647 2.28 1.684 5.01 1.684 9.424 0 4.413-.037 7.143-1.683 9.425M110.738 101.91V75.284h17.54v4.637h-12.34v6.246h10.508v4.638h-10.51v6.47h12.343v4.637M146.675 101.91l-5.16-9.274-5.125 9.275h-5.946l8.265-13.65-7.743-12.977h5.91l4.637 8.602 4.675-8.602h5.87l-7.74 12.977 8.3 13.65M47.802 128.33v-3.015l8.188-12.82h-7.838v-3.34h12.254v2.963l-8.214 12.874h8.214v3.34M73.12 113.68c-.62-.78-1.536-1.185-2.802-1.185h-2.855v12.497h2.855c1.266 0 2.18-.405 2.8-1.186.7-.834.782-2.046.782-5.063 0-3.016-.08-4.228-.78-5.063m3.312 11.85c-1.374 1.912-3.18 2.8-5.79 2.8H63.72v-19.174h6.92c2.613 0 4.418.888 5.792 2.8 1.185 1.643 1.21 3.61 1.21 6.787 0 3.178-.025 5.144-1.21 6.787M88.74 112.495h-3.528v5.063h3.528c1.643 0 2.72-1.05 2.72-2.53 0-1.483-1.077-2.533-2.72-2.533zm2.91 15.836l-3.745-7.647h-2.693v7.648H81.47v-19.174h7.513c3.904 0 6.22 2.666 6.22 5.87 0 2.694-1.642 4.364-3.5 5.037l4.282 8.268H91.65zM105.52 114.81l-2.424 6.976h4.766l-2.343-6.975zm4.47 13.52l-1.13-3.393h-6.814l-1.16 3.394h-3.903l6.974-19.175h2.937l7 19.176h-3.904zM122.164 128.33h-2.8l-6.33-19.174h3.88l3.85 12.496 3.85-12.496h3.906M130.837 128.33h3.744v-19.174h-3.743M145.488 114.81l-2.424 6.976h4.767l-2.342-6.975zm4.47 13.52l-1.13-3.393h-6.814l-1.158 3.394h-3.905l6.976-19.175h2.936l7.002 19.176h-3.905z"/></g></svg>
