<svg width="197" height="197" viewBox="0 0 197 197" xmlns="http://www.w3.org/2000/svg"><g fill="none" fill-rule="evenodd"><circle fill="#FFF" cx="99" cy="99" r="79"/><path d="M175.217 99.667c-.482 27.187-15.157 50.907-36.95 64.046l10.848 18.788c28.274-16.893 47.323-47.618 47.808-82.833h-21.706z" fill="#FCBA1D"/><path d="M98.906 174.636c-13.416 0-26.02-3.472-36.975-9.55l-10.85 18.793c14.15 7.922 30.459 12.444 47.826 12.444 17.368 0 33.677-4.522 47.826-12.445l-10.85-18.794c-10.957 6.078-23.56 9.55-36.976 9.55" fill="#E45C0A"/><path d="M22.596 99.667H.89c.487 35.215 19.534 65.94 47.81 82.834l10.845-18.787c-21.791-13.14-36.465-36.86-36.949-64.046" fill="#D90015"/><path d="M59.546 32.87L48.7 14.08C20.424 30.975 1.376 61.7.89 96.916h21.707c.482-27.187 15.157-50.907 36.95-64.046" fill="#B792DB"/><path d="M175.217 96.915h21.706c-.485-35.216-19.534-65.94-47.808-82.835l-10.847 18.788c21.792 13.14 36.467 36.86 36.95 64.047" fill="#128B34"/><path d="M98.906 21.946c13.417 0 26.02 3.472 36.975 9.55l10.852-18.794C132.58 4.78 116.275.258 98.906.258 81.538.258 65.23 4.78 51.08 12.702l10.852 18.794c10.956-6.078 23.558-9.55 36.974-9.55" fill="#0F5AC3"/><g><path fill="#F00" d="M100.556 53.205l-4.635 7.338v-7.338H93.35l-5.536 8.626h3.22l2.316-3.86v7.076h3.09l4.118-7.077v7.076h2.704v-11.84"/><path fill="#F00" d="M87.04 53.205h-2.577v11.84h6.567v-2.313h-3.99M80.982 60.922H78.81L79.96 59l1.022-1.798v3.72zm-.257-7.69l-.766 1.28-6.52 10.508h3.196l1.406-2.305h2.939v2.305h2.557V53.232h-2.815zM76.45 53.23l-4.357 7.048V53.23h-2.948l-4.23 7.048-.002-7.047h-2.69l-.002 11.79h2.694l4.742-7.434v7.434h2.436l7.306-11.79M109.943 58.814l.905-1.612v3.72h-2.043l1.02-1.922.118-.186zm-.118 3.9h1.023v2.308h2.556v-11.79h-2.685l-.895 1.28-6.516 10.51h3.192l1.407-2.307h1.915zM118.957 58.357h-1.661v-3.202h1.659c1.022.128 1.53.51 1.53 1.538 0 1.024-.508 1.534-1.53 1.664m3.702.128c.127-.51.255-.898.255-1.283 0-.64 0-1.15-.128-1.793-.385-1.153-1.53-1.793-2.808-2.05-.387-.128-.64-.128-1.023-.128h-4.34v11.79h2.68v-4.485c.893 0 1.15.897 1.532 1.406l.25.536 1.152 2.54h2.683l-2.43-4.998c1.026-.253 1.79-.77 2.174-1.537M129.88 53.23l-3.574 4.616V53.23h-2.68v11.79h2.68v-4.483l3.32 4.483h3.057l-4.59-6.02 4.59-5.77M134.794 54.53h.4c.172 0 .29.013.356.04.06.022.11.063.146.112.036.05.054.11.054.174 0 .1-.036.18-.11.24-.075.062-.213.093-.417.093h-.43v-.66zm0 1.89v-.93H135c.124 0 .22.026.284.076.093.068.215.236.37.507l.19.346h.43l-.266-.43c-.126-.202-.233-.347-.32-.433-.047-.044-.108-.083-.187-.115.19-.014.34-.082.454-.2.113-.117.17-.256.17-.416 0-.112-.033-.22-.1-.32-.068-.1-.162-.17-.275-.21-.116-.04-.302-.062-.56-.062h-.75v2.185h.354zm1.37-2.598c.27.146.48.356.633.626.15.272.227.554.227.848 0 .293-.074.572-.225.842-.148.267-.36.476-.627.626-.268.15-.55.224-.84.224-.293 0-.575-.075-.843-.224-.27-.15-.48-.36-.628-.626-.148-.27-.224-.55-.224-.842 0-.294.077-.576.228-.848.154-.27.364-.48.634-.626.27-.146.547-.22.833-.22.28 0 .56.074.83.22zm-1.83-.293c-.324.173-.58.423-.76.75-.18.325-.272.665-.272 1.016 0 .35.09.686.268 1.008.18.324.43.575.752.752.323.178.658.268 1.01.268.35 0 .69-.09 1.01-.268.32-.177.572-.428.75-.752.18-.322.268-.658.268-1.008s-.09-.69-.272-1.017c-.18-.327-.434-.577-.758-.75-.326-.177-.657-.262-.997-.262-.34 0-.674.085-.998.26z"/><path fill="#919191" d="M44.768 131.244h4.467v-22.88h-4.467M68.096 131.244L59.033 117.2v14.044h-4.466v-22.88h3.985l9.062 14.01v-14.01h4.466v22.88M88.627 113.762c-.74-.932-1.832-1.414-3.342-1.414h-3.407v14.91h3.407c1.51 0 2.603-.48 3.342-1.413.835-.997.932-2.442.932-6.04 0-3.6-.098-5.047-.933-6.043m3.953 14.14c-1.64 2.28-3.792 3.34-6.91 3.34h-8.258v-22.878h8.258c3.118 0 5.27 1.06 6.91 3.34 1.414 1.962 1.445 4.308 1.445 8.1 0 3.79-.03 6.137-1.445 8.098M98.585 131.244v-22.88h15.07v3.984h-10.603v5.367h9.03v3.985h-9.03v5.56h10.604v3.984M131.327 131.244l-5.88-10.412-2.957 3.535v6.877h-4.467v-22.88h4.467v9.962l8.066-9.962h5.43l-7.583 9.094 8.13 13.786M145.688 131.436c-3.47 0-6.106-.74-8.355-3.02l2.892-2.893c1.446 1.446 3.406 1.928 5.495 1.928 2.667 0 4.08-1.027 4.08-2.86 0-.77-.224-1.413-.706-1.895-.45-.418-.9-.61-2.056-.77l-2.732-.42c-2.024-.288-3.406-.9-4.434-1.895-1.093-1.06-1.64-2.57-1.64-4.5 0-4.08 3.02-6.94 7.97-6.94 3.15 0 5.43.77 7.39 2.667l-2.827 2.796c-1.414-1.382-3.18-1.574-4.692-1.574-2.378 0-3.502 1.316-3.502 2.89 0 .61.16 1.19.643 1.64.45.417 1.125.74 2.09.867l2.73.418c2.09.29 3.375.835 4.37 1.8 1.222 1.124 1.768 2.763 1.768 4.82 0 4.435-3.662 6.94-8.482 6.94M40.705 80.222v18.896H36.24V80.222h-5.98v-3.984h16.423v3.984M50.31 99.118v-22.88h15.073v3.984H54.778v5.367h9.03v3.984h-9.03v5.56h10.605v3.984M78.426 80.222h-4.21v6.042h4.21c1.96 0 3.246-1.254 3.246-3.02 0-1.77-1.286-3.022-3.246-3.022zm3.47 18.896L77.43 89.99h-3.214v9.128H69.75v-22.88h8.965c4.66 0 7.423 3.18 7.423 7.005 0 3.213-1.96 5.206-4.177 6.01l5.11 9.865h-5.173zM98.925 99.118h-3.342l-7.552-22.88h4.628l4.596 14.91 4.595-14.91h4.66M109.27 99.118h4.466v-22.88h-4.467M125.368 99.31c-3.47 0-6.106-.74-8.355-3.02l2.89-2.893c1.447 1.446 3.407 1.928 5.496 1.928 2.666 0 4.08-1.028 4.08-2.86 0-.77-.224-1.414-.706-1.896-.45-.42-.9-.61-2.056-.772l-2.732-.418c-2.024-.29-3.406-.9-4.434-1.896-1.093-1.06-1.64-2.57-1.64-4.5 0-4.08 3.02-6.94 7.97-6.94 3.15 0 5.43.77 7.39 2.667l-2.827 2.797c-1.414-1.382-3.18-1.574-4.692-1.574-2.38 0-3.502 1.317-3.502 2.892 0 .61.16 1.19.642 1.64.45.416 1.126.738 2.09.866l2.73.42c2.09.29 3.376.835 4.37 1.8 1.223 1.124 1.77 2.763 1.77 4.82 0 4.435-3.664 6.94-8.484 6.94M138.057 99.118v-22.88h15.072v3.984h-10.606v5.367h9.03v3.984h-9.03v5.56h10.605v3.984M156.724 91.887h9.897V88h-9.896"/></g></g></svg>
