<svg width="197" height="197" viewBox="0 0 197 197" xmlns="http://www.w3.org/2000/svg"><g fill="none" fill-rule="evenodd"><circle fill="#FFF" cx="99" cy="99" r="79"/><path d="M175.212 99.667c-.482 27.187-15.157 50.907-36.95 64.046L149.11 182.5c28.274-16.893 47.323-47.618 47.808-82.833h-21.706z" fill="#FCBA1D"/><path d="M98.902 174.636c-13.417 0-26.02-3.472-36.975-9.55l-10.85 18.793c14.148 7.922 30.457 12.444 47.825 12.444 17.368 0 33.677-4.522 47.825-12.445l-10.85-18.794c-10.956 6.078-23.558 9.55-36.975 9.55" fill="#E45C0A"/><path d="M22.592 99.667H.886c.486 35.215 19.534 65.94 47.808 82.834l10.847-18.787c-21.79-13.14-36.465-36.86-36.948-64.046" fill="#D90015"/><path d="M59.541 32.87L48.695 14.08C20.42 30.975 1.372 61.7.886 96.916h21.707c.482-27.187 15.156-50.907 36.948-64.046" fill="#B792DB"/><path d="M175.212 96.915h21.706c-.485-35.216-19.534-65.94-47.808-82.835l-10.847 18.788c21.792 13.14 36.467 36.86 36.95 64.047" fill="#128B34"/><path d="M98.902 21.946c13.417 0 26.02 3.472 36.975 9.55l10.85-18.794C132.58 4.78 116.27.258 98.902.258c-17.368 0-33.677 4.522-47.825 12.444l10.85 18.794c10.956-6.078 23.558-9.55 36.975-9.55" fill="#0F5AC3"/><g><path fill="#F00" d="M100.552 53.205l-4.635 7.338v-7.338h-2.573l-5.536 8.626h3.22l2.316-3.86v7.076h3.09l4.118-7.077v7.076h2.704v-11.84"/><path fill="#F00" d="M87.037 53.205H84.46v11.84h6.566v-2.313h-3.99M80.978 60.922h-2.173L79.956 59l1.023-1.798v3.72zm-.257-7.69l-.765 1.28-6.518 10.508h3.195l1.406-2.305h2.94v2.305h2.557V53.232H80.72zM76.446 53.23l-4.358 7.048V53.23H69.14l-4.23 7.048V53.23h-2.693v11.79h2.692l4.742-7.434v7.434h2.436l7.305-11.79M109.94 58.814l.904-1.612v3.72H108.8L109.82 59l.12-.186zm-.12 3.9h1.024v2.308h2.556v-11.79h-2.685l-.894 1.28-6.515 10.51h3.193l1.406-2.307h1.917zM118.953 58.357H117.293v-3.202H118.953c1.022.128 1.53.51 1.53 1.538 0 1.024-.508 1.534-1.53 1.664m3.702.128c.128-.51.256-.898.256-1.283 0-.64 0-1.15-.127-1.793-.385-1.153-1.53-1.793-2.808-2.05-.386-.128-.64-.128-1.022-.128h-4.34v11.79h2.68v-4.485c.893 0 1.15.897 1.532 1.406l.25.536 1.153 2.54h2.683l-2.428-4.998c1.025-.253 1.79-.77 2.173-1.537M129.875 53.23l-3.573 4.616V53.23h-2.68v11.79h2.68v-4.483l3.32 4.483h3.056L128.09 59l4.59-5.77M134.79 54.53h.4c.172 0 .29.013.356.04.06.022.11.063.146.112.036.05.054.11.054.174 0 .1-.036.18-.11.24-.075.062-.213.093-.417.093h-.43v-.66zm0 1.89v-.93h.207c.123 0 .218.026.283.076.093.068.215.236.37.507l.19.346h.43l-.266-.43c-.126-.202-.233-.347-.32-.433-.047-.044-.108-.083-.187-.115.188-.014.34-.082.453-.2.113-.117.17-.256.17-.416 0-.112-.033-.22-.1-.32-.068-.1-.162-.17-.275-.21-.115-.04-.3-.062-.558-.062h-.75v2.185h.353zm1.37-2.598c.27.146.48.356.633.626.15.272.227.554.227.848 0 .293-.074.572-.225.842-.147.267-.358.476-.626.626-.27.15-.55.224-.84.224-.294 0-.576-.075-.844-.224-.27-.15-.48-.36-.628-.626-.148-.27-.224-.55-.224-.842 0-.294.077-.576.228-.848.154-.27.364-.48.634-.626.27-.146.547-.22.833-.22.28 0 .56.074.83.22zm-1.83-.293c-.324.173-.58.423-.76.75-.18.325-.272.665-.272 1.016 0 .35.09.686.268 1.008.18.324.43.575.752.752.323.178.658.268 1.01.268.35 0 .69-.09 1.01-.268.32-.177.572-.428.75-.752.18-.322.268-.658.268-1.008s-.09-.69-.272-1.017c-.18-.327-.434-.577-.758-.75-.326-.177-.657-.262-.997-.262-.342 0-.675.085-1 .26z"/><path fill="#919191" d="M48.106 105.244h5.2V78.616h-5.2M75.256 105.244L64.71 88.9v16.344h-5.2V78.616h4.64l10.545 16.306V78.616h5.2v26.628M99.15 84.9c-.86-1.085-2.133-1.647-3.89-1.647h-3.965v17.354h3.964c1.757 0 3.03-.562 3.89-1.646.97-1.158 1.083-2.84 1.083-7.03s-.112-5.872-1.084-7.03m4.6 16.455c-1.91 2.655-4.414 3.89-8.042 3.89h-9.612v-26.63h9.612c3.628 0 6.133 1.235 8.04 3.89 1.647 2.282 1.684 5.012 1.684 9.425 0 4.413-.037 7.143-1.683 9.425M110.738 105.244V78.616h17.54v4.637h-12.34V89.5h10.508v4.637h-10.51v6.47h12.343v4.637M146.675 105.244l-5.16-9.275-5.125 9.274h-5.946l8.265-13.65-7.743-12.978h5.91l4.637 8.602 4.675-8.602h5.87l-7.74 12.977 8.3 13.65M54.05 114.948c-.395-.5-.98-.757-1.788-.757H50.44v7.98h1.822c.81 0 1.393-.257 1.79-.756.446-.533.498-1.307.498-3.233 0-1.925-.052-2.7-.5-3.232m2.116 7.566c-.877 1.222-2.03 1.79-3.698 1.79h-4.42v-12.245h4.42c1.67 0 2.82.566 3.698 1.787.757 1.05.774 2.305.774 4.334 0 2.03-.017 3.286-.774 4.334M59.384 124.303V112.06h8.065v2.13h-5.675v2.873h4.832v2.133h-4.832v2.975h5.674v2.133M77.15 124.406c-1.857 0-3.268-.396-4.47-1.616l1.547-1.548c.774.774 1.822 1.032 2.94 1.032 1.427 0 2.184-.55 2.184-1.53 0-.414-.12-.757-.377-1.015-.24-.225-.482-.328-1.1-.414l-1.462-.223c-1.083-.155-1.823-.482-2.373-1.015-.584-.568-.877-1.376-.877-2.408 0-2.184 1.617-3.714 4.265-3.714 1.685 0 2.907.412 3.955 1.427l-1.513 1.496c-.757-.74-1.702-.844-2.51-.844-1.273 0-1.875.705-1.875 1.548 0 .327.086.636.344.877.24.225.602.397 1.117.466l1.462.223c1.118.154 1.806.446 2.34.962.653.602.945 1.48.945 2.58 0 2.373-1.96 3.714-4.54 3.714M88.055 115.67l-1.547 4.454h3.043l-1.495-4.454zm-.068-4.763c-1.48 0-2.752-.74-2.82-2.597h1.495c.086.74.67 1.032 1.325 1.032.653 0 1.237-.293 1.323-1.032h1.496c-.085 1.857-1.34 2.597-2.82 2.597zm2.923 13.396l-.722-2.167h-4.35l-.74 2.167h-2.494l4.454-12.244h1.874l4.47 12.243H90.91zM102.158 124.303l-4.85-7.515v7.515h-2.39V112.06h2.133l4.85 7.497v-7.498h2.39v12.243M111.257 115.67l-1.547 4.454h3.043l-1.496-4.454zm-.068-4.763c-1.48 0-2.753-.74-2.822-2.597h1.496c.086.74.67 1.032 1.325 1.032.652 0 1.236-.293 1.322-1.032h1.496c-.085 1.857-1.34 2.597-2.82 2.597zm2.922 13.396l-.722-2.167h-4.35l-.74 2.167h-2.494l4.454-12.244h1.874l4.47 12.243h-2.492zM121.594 114.19v10.113h-2.39V114.19h-3.2v-2.13h8.788v2.13M129.644 115.67l-1.547 4.454h3.043l-1.496-4.454zm2.855 8.633l-.723-2.167h-4.35l-.74 2.167h-2.494l4.454-12.244h1.874l4.472 12.243H132.5zM139.98 114.19v10.113h-2.39V114.19h-3.198v-2.13h8.787v2.13M145.125 124.303V112.06h8.065v2.13h-5.674v2.873h4.832v2.133h-4.832v2.975h5.674v2.133"/></g></g></svg>
