<svg width="42" height="42" viewBox="0 0 42 42" xmlns="http://www.w3.org/2000/svg"><g><path d="M9.178 8.672c.75 0 1.357-.61 1.357-1.36V1.487c0-.75-.607-1.36-1.357-1.36s-1.36.61-1.36 1.36v5.827c0 .75.61 1.36 1.36 1.36M31.043 8.672c.75 0 1.36-.61 1.36-1.36V1.487c0-.75-.61-1.36-1.36-1.36-.75 0-1.36.61-1.36 1.36v5.827c0 .75.61 1.36 1.36 1.36M26.064 21.455c-.038-.045-.067-.094-.11-.137-1.05-1.05-2.753-1.05-3.806 0-1.037 1.037-1.044 2.715-.03 3.766 1.01-1.486 2.353-2.738 3.947-3.63M25.953 17.783c1.05-1.05 1.05-2.754 0-3.803-1.05-1.05-2.752-1.05-3.805 0-1.05 1.05-1.05 2.754 0 3.803 1.053 1.05 2.756 1.05 3.805 0M30.033 13.98c-1.053 1.05-1.053 2.755 0 3.804 1.05 1.05 2.752 1.05 3.803 0 1.05-1.05 1.05-2.754 0-3.803-1.05-1.05-2.752-1.05-3.803 0"/><path d="M20.977 35.963H3.527c-.512 0-.93-.418-.93-.93V7.43c0-.514.418-.932.93-.932h.785c-.044.268-.067.54-.067.815 0 2.72 2.213 4.933 4.934 4.933 2.72 0 4.932-2.213 4.932-4.933 0-.274-.022-.547-.067-.815h12.133c-.045.268-.068.54-.068.815 0 2.72 2.213 4.933 4.933 4.933 2.72 0 4.934-2.213 4.934-4.933 0-.274-.02-.547-.066-.815h.784c.513 0 .93.418.93.932v14.178c.656.388 1.27.837 1.84 1.345V7.43c0-1.53-1.24-2.77-2.77-2.77h-3.076v.936c.328.492.52 1.082.52 1.717 0 1.71-1.386 3.095-3.095 3.095-1.71 0-3.095-1.384-3.095-3.095 0-.635.193-1.225.52-1.717V4.66H11.754v.936c.328.492.52 1.082.52 1.717 0 1.71-1.385 3.095-3.094 3.095-1.71 0-3.097-1.384-3.097-3.095 0-.635.193-1.225.52-1.717V4.66H3.528c-1.53 0-2.77 1.24-2.77 2.77v27.603C.76 36.563 2 37.8 3.53 37.8h18.398c-.37-.577-.685-1.19-.95-1.837"/><path d="M6.384 28.656c-1.052 1.05-1.052 2.754 0 3.805 1.05 1.05 2.753 1.05 3.804 0 1.05-1.05 1.05-2.753 0-3.804-1.05-1.05-2.753-1.05-3.804 0M18.07 21.318c-1.05-1.05-2.752-1.05-3.804 0-1.05 1.05-1.05 2.754 0 3.805 1.052 1.05 2.753 1.05 3.804 0 1.053-1.05 1.053-2.754 0-3.805M10.188 13.98c-1.05-1.05-2.753-1.05-3.804 0-1.05 1.05-1.05 2.755 0 3.804 1.05 1.05 2.753 1.05 3.804 0 1.05-1.05 1.05-2.754 0-3.803M10.188 21.318c-1.05-1.05-2.753-1.05-3.804 0-1.05 1.05-1.05 2.754 0 3.805 1.05 1.05 2.753 1.05 3.804 0 1.05-1.05 1.05-2.754 0-3.805M14.266 28.656c-1.05 1.05-1.05 2.754 0 3.805 1.052 1.05 2.755 1.05 3.804 0 1.053-1.05 1.053-2.753 0-3.804-1.05-1.05-2.752-1.05-3.804 0M18.07 13.98c-1.05-1.05-2.752-1.05-3.804 0-1.05 1.05-1.05 2.755 0 3.804 1.052 1.05 2.753 1.05 3.804 0 1.053-1.05 1.053-2.754 0-3.803M31.72 21.8c-5.407 0-9.79 4.382-9.79 9.79 0 5.406 4.383 9.79 9.79 9.79 5.405 0 9.79-4.384 9.79-9.79 0-5.408-4.385-9.79-9.79-9.79m6.825 7.64l-7.762 7.76c-.287.287-.675.45-1.084.45-.407 0-.795-.163-1.085-.45l-3.982-3.983c-.6-.6-.6-1.57 0-2.17.6-.598 1.57-.598 2.168 0l2.9 2.9 6.675-6.677c.602-.598 1.57-.598 2.17 0 .6.6.6 1.57 0 2.17"/></g></svg>
