<svg width="63" height="62" viewBox="0 0 63 62" xmlns="http://www.w3.org/2000/svg"><path d="M31.452 58.41c-15.232 0-27.625-12.393-27.625-27.625S16.22 3.16 31.452 3.16s27.625 12.393 27.625 27.625S46.684 58.41 31.452 58.41m0-58.25C14.565.16.827 13.9.827 30.786S14.565 61.41 31.452 61.41s30.625-13.738 30.625-30.625S48.34.16 31.452.16"/><path d="M19.784 24.228c1.808 0 3.272-1.466 3.272-3.273 0-1.808-1.464-3.274-3.272-3.274-1.81 0-3.273 1.467-3.273 3.275 0 1.807 1.465 3.273 3.274 3.273M43.378 24.228c1.81 0 3.273-1.466 3.273-3.273 0-1.808-1.463-3.274-3.272-3.274-1.808 0-3.272 1.467-3.272 3.275 0 1.807 1.464 3.273 3.272 3.273M31.452 36.09c-6.956 0-13.46 3.434-17.395 9.187-.468.682-.293 1.617.39 2.084.685.47 1.617.294 2.086-.39 3.377-4.935 8.953-7.88 14.92-7.88 5.965 0 11.54 2.945 14.92 7.88.29.425.76.653 1.238.653.292 0 .587-.085.847-.262.683-.466.858-1.4.39-2.083-3.936-5.753-10.44-9.188-17.395-9.188"/></svg>
